<?xml version="1.0" standalone="no"?>
<!DOCTYPE svg PUBLIC "-//W3C//DTD SVG 20010904//EN"
 "http://www.w3.org/TR/2001/REC-SVG-20010904/DTD/svg10.dtd">
<svg version="1.0" xmlns="http://www.w3.org/2000/svg"
 width="100.000000pt" height="100.000000pt" viewBox="0 0 100.000000 100.000000"
 preserveAspectRatio="xMidYMid meet">
<metadata>
Created by potrace 1.11, written by Peter Selinger 2001-2013
</metadata>
<g transform="translate(0.000000,100.000000) scale(0.100000,-0.100000)"
fill="#000000" stroke="none">
<path d="M0 500 l0 -500 500 0 500 0 0 500 0 500 -500 0 -500 0 0 -500z m564
307 c0 -18 -6 -42 -12 -54 -6 -11 -15 -46 -18 -77 -8 -68 7 -75 30 -13 11 29
14 33 11 12 -6 -32 -34 -76 -52 -82 -22 -8 -31 30 -21 85 5 30 7 59 5 65 -2 7
2 18 10 25 7 7 13 27 13 43 0 21 5 29 18 29 13 0 17 -8 16 -33z m-244 -24
c-13 -19 -24 -56 -31 -113 -5 -47 -14 -104 -20 -128 -22 -102 -119 -185 -159
-137 -11 13 -11 18 0 28 8 7 14 8 16 2 14 -35 22 -39 47 -22 32 21 53 77 77
210 10 60 26 120 35 133 21 32 4 30 -36 -3 -44 -37 -74 -105 -59 -134 7 -12
17 -18 27 -15 9 4 13 1 11 -6 -8 -22 -60 -16 -68 7 -11 29 12 91 46 126 22 23
111 76 132 79 1 0 -7 -12 -18 -27z m360 -58 c0 -8 -7 -15 -15 -15 -16 0 -20
12 -8 23 11 12 23 8 23 -8z m-205 -70 c6 -46 4 -59 -11 -76 -11 -12 -26 -18
-37 -15 -10 2 -21 -2 -24 -10 -6 -16 -25 -18 -39 -4 -13 13 8 122 24 128 14 4
14 -7 3 -66 -9 -44 5 -73 16 -33 5 20 6 20 19 4 12 -16 15 -16 24 -3 13 20 13
43 -1 74 -7 14 -9 32 -6 40 12 31 26 15 32 -39z m310 -1 c-3 -26 -9 -53 -12
-60 -3 -8 0 -14 5 -14 6 0 14 9 17 21 4 11 9 18 12 15 10 -9 -27 -56 -44 -56
-13 0 -15 9 -9 60 9 78 -8 79 -29 3 -9 -32 -18 -64 -20 -71 -6 -15 -53 -34
-67 -26 -12 7 -1 114 13 128 16 18 20 -2 11 -53 -10 -53 -1 -76 17 -43 5 10
13 42 17 70 5 41 10 52 25 52 10 0 21 5 24 10 3 6 15 10 27 10 18 0 20 -4 13
-46z m-450 -40 c-3 -26 -9 -54 -13 -62 -4 -11 -1 -14 11 -9 15 6 16 3 7 -14
-6 -11 -17 -18 -23 -16 -16 6 -11 128 6 139 19 12 20 11 12 -38z m203 -111
c35 -29 37 -65 8 -100 l-26 -31 25 -16 c20 -13 25 -25 25 -56 0 -49 -35 -81
-89 -78 l-36 1 33 4 c26 3 36 12 49 39 24 48 9 88 -33 92 -30 3 -31 1 -37 -43
-10 -71 -39 -118 -91 -146 -49 -25 -77 -21 -84 15 -5 25 35 20 41 -5 5 -17 9
-19 26 -9 35 18 50 51 70 153 18 90 49 157 71 157 5 0 2 -16 -6 -35 -16 -39
-18 -75 -5 -75 17 0 51 52 51 79 0 81 -116 62 -178 -29 -46 -69 -14 -152 40
-103 21 18 21 18 7 -4 -35 -57 -99 -42 -99 23 0 47 21 85 72 128 63 54 130 70
166 39z m317 -20 c-4 -10 -9 -40 -12 -68 -4 -47 -3 -49 11 -31 9 11 16 15 16
9 0 -21 -36 -56 -49 -48 -14 8 -11 64 4 99 7 16 5 18 -8 13 -12 -5 -17 -1 -17
13 0 17 9 22 54 29 4 0 5 -7 1 -16z m-77 -35 c2 -9 -11 -32 -27 -51 -32 -36
-39 -61 -21 -72 16 -10 38 13 45 46 4 17 9 28 12 25 3 -2 0 -21 -7 -41 -14
-42 -51 -65 -74 -46 -11 9 -20 5 -45 -20 -27 -26 -34 -29 -47 -18 -25 21 -14
104 19 136 15 16 31 23 41 20 20 -8 12 -31 -25 -74 -28 -33 -30 -63 -3 -63 16
0 31 26 50 91 21 71 73 113 82 67z m19 -30 c-3 -8 -6 -5 -6 6 -1 11 2 17 5 13
3 -3 4 -12 1 -19z"/>
<path d="M729 423 c-15 -40 -4 -52 14 -16 20 37 21 43 7 43 -6 0 -15 -12 -21
-27z"/>
<path d="M641 402 c-7 -13 -11 -31 -9 -40 3 -14 6 -13 17 6 7 13 11 31 9 40
-3 14 -6 13 -17 -6z"/>
</g>
</svg>
