<svg xmlns="http://www.w3.org/2000/svg" width="18" height="18" viewBox="0 0 18 10.8"><g><path d="M0,0V10.8H18V0Z" transform="translate(0 0)" fill="#00247d"/><g><path d="M0,0V1.22L7,5.41,0,9.6v1.2H2L9,6.62l7,4.18h2V9.61l-7-4.2,7-4.19V0H16L9,4.21,2,0Z" transform="translate(0 0)" fill="#fff"/><g><path d="M9,5.41h1.34L18,10v.77L9,5.41ZM16.64,0h1.3L9,5.42V4.6L16.64,0ZM3.82,3.09,0,.79V0L9,5.41H7.67L3.82,3.09ZM9,5.41V6.2L1.34,10.8H0L9,5.41Z" transform="translate(0 0)" fill="#cf142b"/></g></g><g><g><path d="M7.5,0V3.6H0V7.2H7.5v3.6h3V7.2H18V3.6H10.5V0Z" transform="translate(0 0)" fill="#fff"/><path d="M8.1,0V4.32H0V6.48H8.1V10.8H9.9V6.48H18V4.32H9.9V0Z" transform="translate(0 0)" fill="#cf142b"/></g></g></g></svg>
