<svg xmlns="http://www.w3.org/2000/svg" width="160" height="160" viewBox="0 0 160 160"><title>Untitled-1</title><path d="M762.58,392.16a5.51,5.51,0,0,1-1.66,2.66c-.43.36-.91.64-1.32,1a3.6,3.6,0,0,0-.59,4.91,6.87,6.87,0,0,1,1.23,2.57,4.73,4.73,0,0,1-2.5,5.08,9.73,9.73,0,0,0-1.65.9,3.66,3.66,0,0,0-1,4.69,5.19,5.19,0,0,1,.63,3.38,4.7,4.7,0,0,1-3.42,3.75,8.61,8.61,0,0,0-1.91.74,3.6,3.6,0,0,0-1.52,4.25,6,6,0,0,1,.09,3.24,4.75,4.75,0,0,1-4,3.3,10,10,0,0,0-1.73.26,3.67,3.67,0,0,0-2.59,4.15,5,5,0,0,1-1,3.94,4.59,4.59,0,0,1-3.5,1.75c-.51,0-1-.05-1.53-.08a3.77,3.77,0,0,0-4,3.78,4.88,4.88,0,0,1-1.74,3.72,4.76,4.76,0,0,1-4.59.82,4,4,0,0,0-3.46.34,3.47,3.47,0,0,0-1.52,2,7.18,7.18,0,0,1-1.15,2.66,4.63,4.63,0,0,1-5.43,1.46,8.46,8.46,0,0,1-1-.45,3.7,3.7,0,0,0-5,2,5.27,5.27,0,0,1-2.5,2.84,4.51,4.51,0,0,1-4,.07,9.43,9.43,0,0,1-1.46-.88,3.64,3.64,0,0,0-5.21.86,6.13,6.13,0,0,1-3.49,2.7h-1.8A7.51,7.51,0,0,1,685,462.5a3.56,3.56,0,0,0-5,.06,6.81,6.81,0,0,1-3.22,2H675.1a5.65,5.65,0,0,1-3-2,8.64,8.64,0,0,0-1.29-1.52,3.57,3.57,0,0,0-4.54.06,5.49,5.49,0,0,1-3.23,1.19,4.61,4.61,0,0,1-4.13-2.44,16.33,16.33,0,0,0-1-1.83,3.66,3.66,0,0,0-4.74-.87,4.9,4.9,0,0,1-4,.4A4.72,4.72,0,0,1,646,454a3.78,3.78,0,0,0-3-3.12,4.38,4.38,0,0,0-2.21.17,4.8,4.8,0,0,1-4.62-.87,4.63,4.63,0,0,1-1.67-3.42,4.11,4.11,0,0,0-1.48-3.24,3.72,3.72,0,0,0-2.86-.77,5,5,0,0,1-4-1,4.64,4.64,0,0,1-1.67-4.46,3.81,3.81,0,0,0-3.66-4.53,4.78,4.78,0,0,1-3.7-1.65,4.72,4.72,0,0,1-1-4.43,5,5,0,0,0,.23-2.51,3.69,3.69,0,0,0-2.93-2.84,5.21,5.21,0,0,1-3.12-1.89,4.62,4.62,0,0,1-.61-4.6c.2-.54.49-1.06.66-1.62a3.66,3.66,0,0,0-2.2-4.43,5,5,0,0,1-3-2.8A4.8,4.8,0,0,1,606,401a3.74,3.74,0,0,0-1-5.63,5.09,5.09,0,0,1-2.32-3.13,1.84,1.84,0,0,0-.09-.25v-1.53a6,6,0,0,1,1.78-3.05,3.62,3.62,0,0,0,.17-5.44,6.63,6.63,0,0,1-1.95-3.24v-1.53a5.43,5.43,0,0,1,1.59-2.71c.33-.28.67-.55,1-.8a3.68,3.68,0,0,0,.9-5.36,5.46,5.46,0,0,1-1.23-3.18,4.83,4.83,0,0,1,3.3-4.68,3.62,3.62,0,0,0,2.33-3.64,5.24,5.24,0,0,0-.5-1.71,5.13,5.13,0,0,1-.3-4.21,4.77,4.77,0,0,1,3.57-2.92,3.87,3.87,0,0,0,3.07-2.76,4.33,4.33,0,0,0-.16-2.52,4.74,4.74,0,0,1,4.5-6.19,3.75,3.75,0,0,0,3.76-3.06,5.16,5.16,0,0,0,0-1.47,4.78,4.78,0,0,1,1.92-4.66,4.63,4.63,0,0,1,3.58-.84,3.75,3.75,0,0,0,4.47-3.4,6.26,6.26,0,0,1,1-3.18,4.72,4.72,0,0,1,5.16-1.76,4.66,4.66,0,0,0,2.56.22,3.68,3.68,0,0,0,2.75-2.8,5.59,5.59,0,0,1,1.72-3.08,4.39,4.39,0,0,1,4.16-1c.78.22,1.5.61,2.27.83a3.61,3.61,0,0,0,4.39-2.12,5.31,5.31,0,0,1,2.31-2.78,4.66,4.66,0,0,1,4.88.17,15.54,15.54,0,0,0,1.4.87,3.67,3.67,0,0,0,4.78-1.44,5.31,5.31,0,0,1,2.51-2.17c.28-.12.58-.21.88-.31h1.53a6.33,6.33,0,0,1,3.22,1.94,3.59,3.59,0,0,0,5.23.07,6.77,6.77,0,0,1,3.28-2H690a5.55,5.55,0,0,1,2.62,1.49,7.26,7.26,0,0,1,.81,1,3.72,3.72,0,0,0,5.51,1,4.94,4.94,0,0,1,4.77-1,4.81,4.81,0,0,1,3,2.9,3.75,3.75,0,0,0,5.44,2,4.78,4.78,0,0,1,5.64.61,5,5,0,0,1,1.53,2.79,3.78,3.78,0,0,0,5,2.84,4.79,4.79,0,0,1,4.24.45,4.67,4.67,0,0,1,2.16,3.56,5.31,5.31,0,0,0,.7,2.61,3.84,3.84,0,0,0,3.94,1.6,4.74,4.74,0,0,1,5.42,5.5,3.84,3.84,0,0,0,3.84,4.54,4.68,4.68,0,0,1,4.66,4.9,6.72,6.72,0,0,1-.28,1.59,3.76,3.76,0,0,0,2.91,5,5,5,0,0,1,3.26,2.19,4.53,4.53,0,0,1,.13,4.79,3.87,3.87,0,0,0,2,5.63,4.67,4.67,0,0,1,3.09,4.67,5.62,5.62,0,0,1-1.23,3.08,3.63,3.63,0,0,0,1,5.43,5.9,5.9,0,0,1,2.48,3.34v1.8s-.06.07-.07.11a5.46,5.46,0,0,1-1.74,2.82,3.71,3.71,0,0,0,0,5.51,4.91,4.91,0,0,1,.84.93c.37.64.67,1.33,1,2Z" transform="translate(-602.58 -304.58)" fill="#fff"/><path d="M762.58,392.16a5.51,5.51,0,0,1-1.66,2.66c-.43.36-.91.64-1.32,1a3.6,3.6,0,0,0-.59,4.91,6.87,6.87,0,0,1,1.23,2.57,4.73,4.73,0,0,1-2.5,5.08,9.73,9.73,0,0,0-1.65.9,3.66,3.66,0,0,0-1,4.69,5.19,5.19,0,0,1,.63,3.38,4.7,4.7,0,0,1-3.42,3.75,8.61,8.61,0,0,0-1.91.74,3.6,3.6,0,0,0-1.52,4.25,6,6,0,0,1,.09,3.24,4.75,4.75,0,0,1-4,3.3,10,10,0,0,0-1.73.26,3.67,3.67,0,0,0-2.59,4.15,5,5,0,0,1-1,3.94,4.59,4.59,0,0,1-3.5,1.75c-.51,0-1-.05-1.53-.08a3.77,3.77,0,0,0-4,3.78,4.88,4.88,0,0,1-1.74,3.72,4.76,4.76,0,0,1-4.59.82,4,4,0,0,0-3.46.34,3.47,3.47,0,0,0-1.52,2,7.18,7.18,0,0,1-1.15,2.66,4.63,4.63,0,0,1-5.43,1.46,8.46,8.46,0,0,1-1-.45,3.7,3.7,0,0,0-5,2,5.27,5.27,0,0,1-2.5,2.84,4.51,4.51,0,0,1-4,.07,9.43,9.43,0,0,1-1.46-.88,3.64,3.64,0,0,0-5.21.86,6.13,6.13,0,0,1-3.49,2.7h-1.8A7.51,7.51,0,0,1,685,462.5a3.56,3.56,0,0,0-5,.06,6.81,6.81,0,0,1-3.22,2H675.1a5.65,5.65,0,0,1-3-2,8.64,8.64,0,0,0-1.29-1.52,3.57,3.57,0,0,0-4.54.06,5.49,5.49,0,0,1-3.23,1.19,4.61,4.61,0,0,1-4.13-2.44,16.33,16.33,0,0,0-1-1.83,3.66,3.66,0,0,0-4.74-.87,4.9,4.9,0,0,1-4,.4A4.72,4.72,0,0,1,646,454a3.78,3.78,0,0,0-3-3.12,4.38,4.38,0,0,0-2.21.17,4.8,4.8,0,0,1-4.62-.87,4.63,4.63,0,0,1-1.67-3.42,4.11,4.11,0,0,0-1.48-3.24,3.72,3.72,0,0,0-2.86-.77,5,5,0,0,1-4-1,4.64,4.64,0,0,1-1.67-4.46,3.81,3.81,0,0,0-3.66-4.53,4.78,4.78,0,0,1-3.7-1.65,4.72,4.72,0,0,1-1-4.43,5,5,0,0,0,.23-2.51,3.69,3.69,0,0,0-2.93-2.84,5.21,5.21,0,0,1-3.12-1.89,4.62,4.62,0,0,1-.61-4.6c.2-.54.49-1.06.66-1.62a3.66,3.66,0,0,0-2.2-4.43,5,5,0,0,1-3-2.8A4.8,4.8,0,0,1,606,401a3.74,3.74,0,0,0-1-5.63,5.09,5.09,0,0,1-2.32-3.13,1.84,1.84,0,0,0-.09-.25v-1.53a6,6,0,0,1,1.78-3.05,3.62,3.62,0,0,0,.17-5.44,6.63,6.63,0,0,1-1.95-3.24v-1.53a5.43,5.43,0,0,1,1.59-2.71c.33-.28.67-.55,1-.8a3.68,3.68,0,0,0,.9-5.36,5.46,5.46,0,0,1-1.23-3.18,4.83,4.83,0,0,1,3.3-4.68,3.62,3.62,0,0,0,2.33-3.64,5.24,5.24,0,0,0-.5-1.71,5.13,5.13,0,0,1-.3-4.21,4.77,4.77,0,0,1,3.57-2.92,3.87,3.87,0,0,0,3.07-2.76,4.33,4.33,0,0,0-.16-2.52,4.74,4.74,0,0,1,4.5-6.19,3.75,3.75,0,0,0,3.76-3.06,5.16,5.16,0,0,0,0-1.47,4.78,4.78,0,0,1,1.92-4.66,4.63,4.63,0,0,1,3.58-.84,3.75,3.75,0,0,0,4.47-3.4,6.26,6.26,0,0,1,1-3.18,4.72,4.72,0,0,1,5.16-1.76,4.66,4.66,0,0,0,2.56.22,3.68,3.68,0,0,0,2.75-2.8,5.59,5.59,0,0,1,1.72-3.08,4.39,4.39,0,0,1,4.16-1c.78.22,1.5.61,2.27.83a3.61,3.61,0,0,0,4.39-2.12,5.31,5.31,0,0,1,2.31-2.78,4.66,4.66,0,0,1,4.88.17,15.54,15.54,0,0,0,1.4.87,3.67,3.67,0,0,0,4.78-1.44,5.31,5.31,0,0,1,2.51-2.17c.28-.12.58-.21.88-.31h1.53a6.33,6.33,0,0,1,3.22,1.94,3.59,3.59,0,0,0,5.23.07,6.77,6.77,0,0,1,3.28-2H690a5.55,5.55,0,0,1,2.62,1.49,7.26,7.26,0,0,1,.81,1,3.72,3.72,0,0,0,5.51,1,4.94,4.94,0,0,1,4.77-1,4.81,4.81,0,0,1,3,2.9,3.75,3.75,0,0,0,5.44,2,4.78,4.78,0,0,1,5.64.61,5,5,0,0,1,1.53,2.79,3.78,3.78,0,0,0,5,2.84,4.79,4.79,0,0,1,4.24.45,4.67,4.67,0,0,1,2.16,3.56,5.31,5.31,0,0,0,.7,2.61,3.84,3.84,0,0,0,3.94,1.6,4.74,4.74,0,0,1,5.42,5.5,3.84,3.84,0,0,0,3.84,4.54,4.68,4.68,0,0,1,4.66,4.9,6.72,6.72,0,0,1-.28,1.59,3.76,3.76,0,0,0,2.91,5,5,5,0,0,1,3.26,2.19,4.53,4.53,0,0,1,.13,4.79,3.87,3.87,0,0,0,2,5.63,4.67,4.67,0,0,1,3.09,4.67,5.62,5.62,0,0,1-1.23,3.08,3.63,3.63,0,0,0,1,5.43,5.9,5.9,0,0,1,2.48,3.34v1.8s-.06.07-.07.11a5.46,5.46,0,0,1-1.74,2.82,3.71,3.71,0,0,0,0,5.51,4.91,4.91,0,0,1,.84.93c.37.64.67,1.33,1,2ZM642.16,448.67a5.85,5.85,0,0,1,5.7,4.58,3,3,0,0,0,1.94,2.45,3.21,3.21,0,0,0,2.55-.36,5.69,5.69,0,0,1,7.95,3,2.84,2.84,0,0,0,4.67,1.26,5.74,5.74,0,0,1,8.06.89c.35.43.63.92,1,1.31a2.49,2.49,0,0,0,2.93.65,4.48,4.48,0,0,0,1.26-.92A6.6,6.6,0,0,1,680.3,460a5.76,5.76,0,0,1,6.61,1.49,2.83,2.83,0,0,0,3,1,3.37,3.37,0,0,0,1.85-1.57,5.5,5.5,0,0,1,3.12-2.36,5.72,5.72,0,0,1,5.34,1,3,3,0,0,0,2,.72,2.71,2.71,0,0,0,2.34-1.52,21,21,0,0,1,1.18-2,5.61,5.61,0,0,1,7.16-1.43,2.79,2.79,0,0,0,4-.93,4.7,4.7,0,0,0,.45-1.22,5.63,5.63,0,0,1,3.37-4.05,5.82,5.82,0,0,1,4-.18,4.49,4.49,0,0,0,1.4.21,2.75,2.75,0,0,0,2.6-2.81,5.9,5.9,0,0,1,1.2-3.51,5.67,5.67,0,0,1,5.56-2.14,2.83,2.83,0,0,0,3.29-3.13,10.24,10.24,0,0,1,0-1.75,5.48,5.48,0,0,1,2.63-4.28,6.63,6.63,0,0,1,3.25-.91,2.66,2.66,0,0,0,2.59-2.87,6.77,6.77,0,0,0-.23-1.32,5.68,5.68,0,0,1,1.81-5.9,6.79,6.79,0,0,1,2.89-1.37,2.8,2.8,0,0,0,1.72-4.34,5.54,5.54,0,0,1-.39-4.49,5.8,5.8,0,0,1,3.46-3.6,3.13,3.13,0,0,0,1.63-1.43,2.81,2.81,0,0,0-.45-3.11,5.85,5.85,0,0,1-1.29-3.84,5.72,5.72,0,0,1,2.79-4.73,2.83,2.83,0,0,0,1.5-2.72,3.32,3.32,0,0,0-1.15-2.08,5.65,5.65,0,0,1-1.64-6,6.09,6.09,0,0,1,1.73-2.63,2.75,2.75,0,0,0-.18-4.51,16.86,16.86,0,0,1-1.47-1.18,5.74,5.74,0,0,1-.27-7.6,3,3,0,0,0,.71-1.81,3,3,0,0,0-2-2.8,5.67,5.67,0,0,1-3-8,3.27,3.27,0,0,0,.45-2.12,3,3,0,0,0-2.56-2.37,5.67,5.67,0,0,1-4.43-6.36c.11-.63.29-1.25.39-1.89a2.52,2.52,0,0,0-.67-2.2,3.27,3.27,0,0,0-2.32-.94,5.7,5.7,0,0,1-5.46-6.61,2.8,2.8,0,0,0-2.59-3.42,8.19,8.19,0,0,0-1.3.06,5.61,5.61,0,0,1-5.94-4.26c-.17-.71-.16-1.46-.34-2.17a2.49,2.49,0,0,0-2-2,4.41,4.41,0,0,0-2,.19,5.69,5.69,0,0,1-6-1.9,7.76,7.76,0,0,1-1.28-2.84,2.66,2.66,0,0,0-2-2,3.32,3.32,0,0,0-2.34.41,5.69,5.69,0,0,1-8-3,3,3,0,0,0-2.38-2,3.28,3.28,0,0,0-2.32.79,5.71,5.71,0,0,1-5.15,1,5.83,5.83,0,0,1-3.32-2.54c-1-1.61-2.67-2-4.07-1a14.4,14.4,0,0,0-1.17,1.05,5.58,5.58,0,0,1-4.91,1.4,6,6,0,0,1-3.37-2,2.75,2.75,0,0,0-2.92-.91,3.4,3.4,0,0,0-1.8,1.5,5.64,5.64,0,0,1-4.9,2.7,5.94,5.94,0,0,1-3.58-1.27,2.76,2.76,0,0,0-3.3-.37,3.7,3.7,0,0,0-1.4,1.81,5.61,5.61,0,0,1-4.13,3.35,6.16,6.16,0,0,1-4-.62,3.67,3.67,0,0,0-1.77-.37,2.67,2.67,0,0,0-2.42,2.25,6.22,6.22,0,0,1-1.34,2.81,5.65,5.65,0,0,1-6.13,1.7,3.37,3.37,0,0,0-2.42.06,2.81,2.81,0,0,0-1.57,2.59,6,6,0,0,1-1.7,4.05,5.88,5.88,0,0,1-5.19,1.56,2.81,2.81,0,0,0-3.16,3.2,5.75,5.75,0,0,1-1.92,5.48,6,6,0,0,1-3.73,1.37,2.9,2.9,0,0,0-2.32,1.18,3,3,0,0,0-.3,2.76,5.74,5.74,0,0,1-.88,5.32,6,6,0,0,1-3.57,2.19,2.81,2.81,0,0,0-2.28,2.11,3.34,3.34,0,0,0,.47,2.37,5.64,5.64,0,0,1-1.7,7.16,13.65,13.65,0,0,1-1.83,1,2.63,2.63,0,0,0-1.44,3,7.68,7.68,0,0,0,1,1.81,5.7,5.7,0,0,1-1.45,7.9,7.58,7.58,0,0,0-.9.68,2.61,2.61,0,0,0-.89,2.71,4.1,4.1,0,0,0,1.22,1.8,5.61,5.61,0,0,1,1.4,6.16,5.87,5.87,0,0,1-1.6,2.31c-1.08,1.05-1.55,2.37-.66,3.66a5.27,5.27,0,0,0,1.41,1.29,5.79,5.79,0,0,1,2.31,6,7.22,7.22,0,0,1-1.28,2.59,2.63,2.63,0,0,0,.17,3.57,6.56,6.56,0,0,0,1.52.94,5.68,5.68,0,0,1,3.21,3.88,6,6,0,0,1-.57,4.18,2.81,2.81,0,0,0,.45,3.51,4.28,4.28,0,0,0,1.95.88,5.56,5.56,0,0,1,4,3.86,6.27,6.27,0,0,1-.07,3.59c-.5,1.82.14,3.16,1.76,3.68a9.36,9.36,0,0,0,1.5.23,5.58,5.58,0,0,1,4.71,3.55,6.37,6.37,0,0,1,.33,3.15,2.85,2.85,0,0,0,3.47,3.27,5.64,5.64,0,0,1,5.28,2.05,6,6,0,0,1,1.3,3.71,2.81,2.81,0,0,0,3.88,2.55C641,448.91,641.56,448.8,642.16,448.67Z" transform="translate(-602.58 -304.58)" fill="#bd9474"/><path d="M643.41,431.66l-.52-.36a8.16,8.16,0,0,0-1.76-4.16c-.81-.83-1.58-1.11-1.79-1s-.85-.3-.85-.3a5,5,0,0,1,1.76,3.72l.13.09-.13-.09-2-1.58a6.48,6.48,0,0,0-1-4.1c-.64-1-1.35-1.38-1.56-1.35s-.79-.45-.79-.45a5.8,5.8,0,0,1,1,3.63l-1.44-1.54a6.49,6.49,0,0,0-.54-4.2c-.52-1-1.17-1.53-1.39-1.53s-.73-.53-.73-.53a5.8,5.8,0,0,1,.54,3.75l-1.59-2.15v-.17a6.52,6.52,0,0,0,0-4.23c-.38-1.09-1-1.67-1.18-1.7s-.65-.62-.65-.62a6,6,0,0,1,0,3.92l-1.4-2.56v-.05a4.14,4.14,0,0,0,.76-4.16c-.34-1-.71-1.55-.92-1.61s-.53-.73-.53-.73a5.36,5.36,0,0,1-.72,3.74l-1.15-2.8a4.18,4.18,0,0,0,1.53-3.79,3,3,0,0,0-.65-1.78c-.2-.11-.37-.83-.37-.83a5.36,5.36,0,0,1-1.47,3.52,1.7,1.7,0,0,1,0,.35l-.2-.59-.91-3.33a4.14,4.14,0,0,0,1.8-3.74,3,3,0,0,0-.55-1.81c-.19-.12-.32-.84-.32-.84a5.28,5.28,0,0,1-1.56,3.33l-.48-2.64a4.19,4.19,0,0,0,2-3.59,2.91,2.91,0,0,0-.43-1.85c-.18-.13-.18-.56-.18-.56a4.26,4.26,0,0,1-2,3c0,.56-.12.66-.12.66a2.4,2.4,0,0,1-.14-.72c-1.86-1.13-2.33-3.8-2.33-3.8s0,.26-.1.57-.32.1-.32,1.39c0,3.41,3.2,5.28,3.2,5.28l.47,2.31.09.47c-.05-.21-.09-.47-.09-.47-1.93-1-2.59-3.63-2.59-3.63s0,.27-.06.58-.31.13-.22,1.42c.24,3.4,3.57,5,3.57,5l.88,3a6.36,6.36,0,0,1-2.56-3.37s0,.27,0,.58-.31.15-.15,1.43c.43,3.38,3.85,4.83,3.85,4.83l1,2.31a5.65,5.65,0,0,1-3-2.59s0,.27.09.57-.27.2.15,1.43a7,7,0,0,0,4.57,4.12l1.2,2.11a5.53,5.53,0,0,1-3.67-2s.08.26.19.55-.23.25.39,1.38a6.24,6.24,0,0,0,5.08,3.25h0l1.58,2.16a5.61,5.61,0,0,1-3.71-1.37s.11.25.26.52a3.73,3.73,0,0,0,.75,1.62,4.39,4.39,0,0,0,5.06,1.89l1.37,1.51a5.56,5.56,0,0,1-4-.9,3.46,3.46,0,0,1,.32.39,3.73,3.73,0,0,0,.94,1.61,4.29,4.29,0,0,0,5.25,1.19l1.73,1.32c-1.64,1.07-3.81,0-3.81,0a2.68,2.68,0,0,1,.39.33,3.78,3.78,0,0,0,1.22,1.41,4,4,0,0,0,5,.15l.28.18s.14.13.19,0S643.67,431.85,643.41,431.66Z" transform="translate(-602.58 -304.58)" fill="#bd9474"/><path d="M745.44,386.54a3.67,3.67,0,0,0-.31-1.83,4.92,4.92,0,0,1,0-.51,5.55,5.55,0,0,1-2.45,3.21l.08-2a4.38,4.38,0,0,0,2.68-4.69A3.72,3.72,0,0,0,745,379c-.07-.31-.14-.57-.14-.57a5.57,5.57,0,0,1-2,3.42l-.17-2.67h0a6.22,6.22,0,0,0,1.82-5.75c-.24-1.27-.48-1-.58-1.32s-.21-.54-.21-.54a5.51,5.51,0,0,1-1.5,3.93l-.43-2.4a7,7,0,0,0,.87-6.09c-.46-1.21-.65-.91-.8-1.19s-.3-.5-.3-.5a5.65,5.65,0,0,1-.64,3.91l-.73-2.39s1.69-3.3-.14-6.17c-.7-1.09-.82-.77-1-1l-.4-.42a6.42,6.42,0,0,1,.19,4.23l-1.27-2.91s1.51-3.38-.48-6.15c-.75-1.05-.86-.72-1.08-.94s-.41-.41-.41-.41,1.18,2.45.33,4.45a4.53,4.53,0,0,1,.23.41l-.23-.41-1.12-2.08s1.27-3.48-.91-6.1c-.83-1-.91-.66-1.15-.87s-.44-.37-.44-.37,1.35,2.35.65,4.41a2.56,2.56,0,0,1,.35.64s-.19,0-.52-.43a4.26,4.26,0,0,1-3.44-1s.28.32.22.54a3,3,0,0,0,.86,1.69,4.21,4.21,0,0,0,3.86,1.46l1.33,2.33a5.22,5.22,0,0,1-3.34-1.56s.36.64.29.85a3,3,0,0,0,.74,1.75,4.19,4.19,0,0,0,3.78,1.72l1.43,3.14.22.58a2,2,0,0,1-.19-.3,5.29,5.29,0,0,1-3.38-1.76s.32.66.25.87a2.94,2.94,0,0,0,.63,1.79,4.19,4.19,0,0,0,3.61,1.93l.9,2.89a5.37,5.37,0,0,1-2.95-2.41s.18.71.07.9a3,3,0,0,0,.32,1.82,4.13,4.13,0,0,0,3.25,2.71l0,0,.57,2.86a5.93,5.93,0,0,1-2.52-3s0,.74-.1.9a2.79,2.79,0,0,0,.18,2.06,6.54,6.54,0,0,0,2.72,3.24l.11.13.16,2.67a5.8,5.8,0,0,1-2-3.23s0,.73-.22.88a2.75,2.75,0,0,0-.09,2.06,6.51,6.51,0,0,0,2.28,3.57l-.12,2.11a5.77,5.77,0,0,1-1.58-3.42s-.13.73-.31.85a2.71,2.71,0,0,0-.34,2,6.5,6.5,0,0,0,1.84,3.81l-.56,2.52,0,.15a.83.83,0,0,1,0-.15,5,5,0,0,1-1-4s-.27.69-.47.77a2.82,2.82,0,0,0-.71,1.95,8,8,0,0,0,1.31,4.32l-.17.62c-.08.31.12.23.25.3s.15-.12.15-.12l.1-.32a4,4,0,0,0,3.75-3.32,3.72,3.72,0,0,0,0-1.86,3.49,3.49,0,0,1,.08-.5s-1,2.19-2.92,2.43l.48-2.13A4.28,4.28,0,0,0,745.44,386.54Z" transform="translate(-602.58 -304.58)" fill="#bd9474"/><path d="M719.85,427.38a2.34,2.34,0,0,1,3.16.05l-1,.81a1.09,1.09,0,0,0-1.37.1,1.31,1.31,0,0,0-.13,2,1.37,1.37,0,0,0,1.92.34,1.11,1.11,0,0,0,.39-1.38l1-.81a2.33,2.33,0,0,1-.68,3.15,2.67,2.67,0,1,1-3.29-4.21Z" transform="translate(-602.58 -304.58)" fill="#231f20"/><path d="M672.05,444.15a2.65,2.65,0,1,1,5.3.2A2.65,2.65,0,1,1,672.05,444.15Zm4,.15a1.3,1.3,0,1,0-2.59-.1A1.3,1.3,0,1,0,676,444.3Z" transform="translate(-602.58 -304.58)" fill="#231f20"/><path d="M689,444.6a2.65,2.65,0,1,1,5-1.63A2.65,2.65,0,1,1,689,444.6Zm3.76-1.22a1.3,1.3,0,1,0-2.47.8A1.3,1.3,0,1,0,692.74,443.38Z" transform="translate(-602.58 -304.58)" fill="#231f20"/><path d="M713.86,435.17a2.65,2.65,0,1,1,4.53-2.76A2.65,2.65,0,1,1,713.86,435.17Zm3.38-2.05a1.3,1.3,0,1,0-2.22,1.34A1.3,1.3,0,1,0,717.24,433.12Z" transform="translate(-602.58 -304.58)" fill="#231f20"/><path d="M683.79,442h.48l0,5.26h-1.37v-2.33l-1.12,1.16h-.15l-1.11-1.17v2.33h-1.37l0-5.26h.49l2,2.29Z" transform="translate(-602.58 -304.58)" fill="#231f20"/><path d="M728.14,425.73l-1.38,1.53.28.67-.87,1-2.36-5.3.39-.43,5.51,1.8-.87,1Zm-2.56-.92.62,1.36.8-.88Z" transform="translate(-602.58 -304.58)" fill="#231f20"/><path d="M670.21,445.94l0,.18-1.43-.29-.56-1.64-.67-.14-.3,1.48-1.28-.26,1-5,2.2.44a1.82,1.82,0,0,1,.41,3.45Zm-1.3-4.1-.92-.18-.25,1.25.92.19C669.35,443.24,669.64,442,668.91,441.84Z" transform="translate(-602.58 -304.58)" fill="#231f20"/><path d="M706.74,441.74l.07.18-1.36.53-1.37-1.09-.63.25L704,443l-1.22.47-1.85-4.76,2.09-.81a1.82,1.82,0,0,1,2.2,2.68Zm-3.3-2.74-.87.33.46,1.2.87-.34C704.56,439.93,704.14,438.73,703.44,439Z" transform="translate(-602.58 -304.58)" fill="#231f20"/><path d="M662.56,442.53l-.51,1.61-1.29-.41,1.59-5,3.07,1-.36,1.13-1.79-.58-.35,1.08,1.59.51-.36,1.13Z" transform="translate(-602.58 -304.58)" fill="#231f20"/><path d="M698.82,443l-.92-3.26,1.2-.34.93,3.28a2,2,0,0,1-3.9,1.1l-.93-3.28,1.2-.34.93,3.26a.7.7,0,0,0,.92.39C698.61,443.65,698.94,443.35,698.82,443Z" transform="translate(-602.58 -304.58)" fill="#231f20"/><path d="M711.73,438.16l1.63-.92.59,1-2.79,1.58-2.54-4.5,1.16-.66Z" transform="translate(-602.58 -304.58)" fill="#231f20"/><path d="M730.66,421.79l1.14-1.49.94.73-2,2.54-4.1-3.14.81-1.05Z" transform="translate(-602.58 -304.58)" fill="#231f20"/><path d="M734,416.41c-.31-.19-.6.14-.89.57-.64.92-1.35,1.35-2.32.79-1.94-1.11.13-4.55,2-3.38l-.65,1.07c-.59-.35-1.25.87-.75,1.23.32.22.59-.07.87-.44.62-.82,1.27-1.6,2.38-.94,1.86,1.12-.27,4.75-2.2,3.55l.65-1.09C733.67,418.1,734.5,416.72,734,416.41Z" transform="translate(-602.58 -304.58)" fill="#231f20"/><path d="M676.44,428.42l-1.09.4.15.42,1-.37.24.67-1,.37.19.52,1.14-.41.24.67-1.88.69c-.36-1-.73-2-1.08-3l1.85-.68Z" transform="translate(-602.58 -304.58)" fill="#231f20"/><path d="M680.46,428.56c-.08-.21-.34-.17-.65-.08-.66.19-1.16.13-1.4-.51-.49-1.27,1.81-2.11,2.26-.83l-.72.26c-.15-.39-.93-.07-.83.3s.31.19.58.12c.61-.15,1.22-.27,1.49.47.46,1.25-2,2.15-2.41.84l.74-.27C679.65,429.24,680.58,428.9,680.46,428.56Z" transform="translate(-602.58 -304.58)" fill="#231f20"/><path d="M682.29,426.28l-.24-.67,2.2-.81.24.68-.72.27.83,2.28-.74.28L683,426Z" transform="translate(-602.58 -304.58)" fill="#231f20"/><path d="M686.81,426.82a.43.43,0,0,1,.28-.55.42.42,0,0,1,.56.24.41.41,0,0,1-.27.54A.42.42,0,0,1,686.81,426.82Z" transform="translate(-602.58 -304.58)" fill="#231f20"/><path d="M693.76,421.33l.27-.1,1.09,3-.78.28-.48-1.32-.39.89-.09,0-.86-.43L693,425l-.78.28-1.08-3,.28-.1,1.63.86Z" transform="translate(-602.58 -304.58)" fill="#231f20"/><path d="M698.76,419.5l.27-.1,1.08,3-.77.28-.49-1.32-.39.89-.08,0-.87-.43.48,1.32-.77.28-1.08-3,.28-.1,1.62.86Z" transform="translate(-602.58 -304.58)" fill="#231f20"/><path d="M702.91,420.3l-.23,1.14-.79.29,0-.12.43-1.8-1.32-1-.05-.11.78-.29.76.6h0l.22-.95.76-.28,0,.12-.39,1.59,1.49,1.1,0,.12-.8.29-.9-.73Z" transform="translate(-602.58 -304.58)" fill="#231f20"/><path d="M707.06,418.38h0l.07-1.93.72-.26,0,.11-.21,3.34-.32.12-2.32-2.42-.05-.11.73-.27Z" transform="translate(-602.58 -304.58)" fill="#231f20"/><path d="M711.8,417.36l.24.67-1.5.54-.24-.66.37-.14-.6-1.64-.34.13-.24-.66,1.44-.53.24.66-.35.13.6,1.64Z" transform="translate(-602.58 -304.58)" fill="#231f20"/><path d="M714.91,416.23l.24.66-1.5.55-.25-.66.38-.14-.6-1.64-.35.13-.24-.66,1.45-.53.24.66-.35.13.6,1.63Z" transform="translate(-602.58 -304.58)" fill="#231f20"/><path d="M636.84,393.3c0-1.35.32-2.89,2-2.89a1.86,1.86,0,0,1,2,2c0,.77-.19.94-.19,1.42s1.32,1.16,2.92.64,4.25-1.86,6.08-7a62.38,62.38,0,0,0,2.8-11c.19-1.29,2.15-13.32,2.83-15.82s2.38-7.72,4.79-10.13c.32-.32.32-.55-.71,0a24.08,24.08,0,0,0-7.26,5.21c-2.83,3.12-5.6,7.87-5.47,12s2.6,3.83,3,3.79a4.28,4.28,0,0,0,2.54-1.67c1.09-1.32.77-.19.48.45s-1.86,4.63-5.27,4-4.31-2.44-4.44-6,2.22-7.08,3.79-9.26a29.31,29.31,0,0,1,11.64-9.2,21.39,21.39,0,0,1,6.05-2.09c1,0,.8.42.8.68s-.16.57-.8.57a1.79,1.79,0,0,0-2,.74c-.94,1-2.13,3.15-2.7,7.62s-1.84,14.7-1.84,14.7-1,6-1.28,7.2a35.42,35.42,0,0,1-4.18,9.07c-2,2.6-5.71,8-11.84,8C638.52,396.32,636.84,395.13,636.84,393.3Z" transform="translate(-602.58 -304.58)" fill="#bd9474"/><path d="M659.64,378.45c0-1.76,1.59-8.87,1.68-10.05a3.91,3.91,0,0,0-.12-1.94c-.17-.53,0-.73.47-.91a8.1,8.1,0,0,0,1.68-.62c.44-.29,1.17-.7,1.32.27a5.89,5.89,0,0,1,0,2.59c-.24,1.32-1,6.08-1,6.08s-.53,2.58-.65,3.58.12,1.74.68,1.74,1.59-.74,2.53-3.91a55.53,55.53,0,0,0,2-9.11c.12-1.82-.05-1.88,0-2.56s.27-.64.71-.91a10.62,10.62,0,0,1,1.23-.44,4.3,4.3,0,0,0,.83-.41c.5-.32.91.26.91,1.12a25.26,25.26,0,0,1-.65,4c-.26,1.18-.53,2.74-.68,3.76s-.52,3-.52,3.91.05,1.74.55,1.85,1.47-1.53,2-3S675,366.4,675,366.4s1.47-5.58,1.68-6.14.26-.88.91-1.11a7.45,7.45,0,0,0,2-.91c.35-.36.41-.12.35.73a24.45,24.45,0,0,0,.5,5.08,23.87,23.87,0,0,1,.67,5,10.14,10.14,0,0,1-1.67,5.49,5.81,5.81,0,0,1-4.26,2.27,1.72,1.72,0,0,1-1.65-1.83c0-1.08.65-1.41.86-1.41s.47.21.85.86.47.91,1.09.91,1.64-1.21,1.7-4.09a49.35,49.35,0,0,0-.74-7.67c-.11-.73-.35-1-.49-.2s-3.35,11.11-3.62,11.87c-.62,1.82-2.26,3.79-4,3.79a2.19,2.19,0,0,1-2.08-2.29c0-.56,0-.94-.24-.94s-.55,1.5-1.29,3-1.94,3.11-3.82,3.11S659.64,379.56,659.64,378.45Z" transform="translate(-602.58 -304.58)" fill="#bd9474"/><path d="M682.31,368.28c0-3.68,1.85-10.61,2.15-11.67a11.48,11.48,0,0,0,.52-2.11c0-.36-1.12.32-1.71.32s-.48-.35-.48-.58a1.52,1.52,0,0,1,1.54-.92c.81,0,1.42-1.08,1.71-2.49a20.45,20.45,0,0,0,.32-3.44c0-.66-.07-1.52-.07-2.2s.71-1.3,1.79-1.44,1.17-.89,1.91-.89.78.76.78,1.22-.21,2.46-.34,3.19-.59,2.43-.67,3.27,0,.89.3.81,1-.62,1.53-.62.39.66.3.83a1.83,1.83,0,0,1-1.23.85c-.78.17-1.46.43-1.68,1.32s-1,5.3-1,5.3-1,5-1.29,6a12.21,12.21,0,0,0-.39,2.82c0,.75.19,1.74,1.09,1.74s1.92-1.22,2.4-2.66,1.63-5.35,1.86-6.08.63-1.73,1-1.73.33.37.33,1.06a18,18,0,0,1-.95,3.67,57,57,0,0,1-2.36,5.74c-.63,1.13-2,3.34-4.07,3.34S682.31,371,682.31,368.28Z" transform="translate(-602.58 -304.58)" fill="#bd9474"/><path d="M700.74,357.75a2.47,2.47,0,0,1,2.12-2.57c1.07,0,1.31,1.25,1.31,2s-.67,2.27-1.82,2.27A1.55,1.55,0,0,1,700.74,357.75Z" transform="translate(-602.58 -304.58)" fill="#bd9474"/><path d="M698.2,377.71a30.55,30.55,0,0,1,.88-6,30.16,30.16,0,0,0,.94-4.41c0-.72-.36-1-.36-1.37s.16-.54.61-.9,1-.27,1.73-.74,1.45-.2,1.45,1.13a20.36,20.36,0,0,1-.69,3.88c-.26,1.3-.86,4.43-1,5.45a18.43,18.43,0,0,0-.33,2.72c0,.75.29,1,.78,1s1.2-.78,1.55-1.43a12,12,0,0,0,.86-2.51c.18-.72,1.33-6.32,1.33-6.32a30.77,30.77,0,0,0,.63-3.77c0-.92-.2-.62-.2-1.37s.55-.31,1.14-.66a6.21,6.21,0,0,1,1.94-.86c.37,0,.69.64.69,1.19s-.16,1.08,0,1.25.7-1.29,1.15-1.92,2.1-2.41,3.66-2.41,2.24,1.12,2.24,3a23.87,23.87,0,0,1-1.26,5.82,29.55,29.55,0,0,0-.78,4.13c-.18,1.26.08,1.51.55,1.45s1.64-.68,2.43-3.07,1.17-3.69,1.37-4.27.12-1.92.8-1.92.57.86.41,1.52-1.76,5.06-2.07,5.8-2.26,4.55-4.88,4.55-2.06-3.72-2-4.14,1.22-5.95,1.49-7a10.65,10.65,0,0,0,.55-2.72c0-.81-.88-1.06-1.47-.39a14.26,14.26,0,0,0-2.23,4.36,30.84,30.84,0,0,0-1.47,5.51c-.49,2.64-1,4.72-1,4.72s-.2.84-.39,1.43-1.61,1.1-2.49,1.37-1.18-.21-1.1-.53.26-1.11-.23-.17-1.67,2.15-2.78,2.15S698.2,380,698.2,377.71Z" transform="translate(-602.58 -304.58)" fill="#bd9474"/><path d="M657.57,420.09a2.44,2.44,0,0,1,2.35-2.54,2.35,2.35,0,0,1,2.27,2.26c0,1.29-.33.81-.33,1.56s.93.94,1.68.94a9.07,9.07,0,0,0,5.67-3.29,18.07,18.07,0,0,0,2.89-6.79c.28-1.19.88-5.25,1.12-6.26s.82-4.47.82-4.47.66-3.74.94-4.86a37.36,37.36,0,0,1,2-5.51,21.19,21.19,0,0,1,3.12-4.22,5.85,5.85,0,0,1,3-1.73c.56,0,.56.34.56.54s-.12.31-.62.89a11.86,11.86,0,0,0-1.79,3.35,40.35,40.35,0,0,0-1.65,6c-.28,1.39-.6,3.72-.72,4.63s-.89,6.2-.89,6.2a27.15,27.15,0,0,1-.81,3.77,23.15,23.15,0,0,1-2.1,4.56,18.72,18.72,0,0,1-4.29,5.05c-1.85,1.53-6,4-9.35,4S657.57,420.49,657.57,420.09Z" transform="translate(-602.58 -304.58)" fill="#bd9474"/><path d="M659.55,402.75a14.36,14.36,0,0,1,1.61-7,30.31,30.31,0,0,1,6.38-8.17c2.46-2,7.38-5.34,11.35-6s8.37-.57,10.7,2.81a8.45,8.45,0,0,1,.47,8.74,15.09,15.09,0,0,1-4.72,4.57c-1,.67-.22.44.77.79a8.29,8.29,0,0,1,5.14,4.64,9.17,9.17,0,0,1,.13,7,10.93,10.93,0,0,1-10.33,6.68c-2.71,0-4.62-1.47-4.62-2.21s.42-.72.65-.72.47.19.94.59a4.51,4.51,0,0,0,4,.62c1.83-.62,4.34-2.36,5.24-6.43a8.9,8.9,0,0,0-1.07-7.07,4.55,4.55,0,0,0-3.57-2,16.67,16.67,0,0,0-2.76.48c-.47,0-.5-.35-.5-.67s.15-.48.55-.65,4.17-2.13,5.51-4.62a10,10,0,0,0,1.34-5.48c0-1.42-1.76-5.67-6.06-5.67-3.62,0-9,3.58-9.53,3.95a25.47,25.47,0,0,0-4.89,5,18,18,0,0,0-3.13,9.51c0,3.78,2.08,5.44,3.62,5.44s3.18-1.59,4.27-3.28c.45-.74.9-1.39,1.34-1.39s.48.45.4.87a9.78,9.78,0,0,1-1.69,2.93c-1.11,1.54-3,3.85-6.13,3.85S659.55,406.74,659.55,402.75Z" transform="translate(-602.58 -304.58)" fill="#bd9474"/><path d="M727.89,389c-.08,0-.41-.1-.57.55s-.78,3.17-1.27,4.7-1.21,3.53-2.17,4.09-1.32-.31-1.41-1.29a22.86,22.86,0,0,1,.39-4.74,50.18,50.18,0,0,1,1.74-6.66,5.83,5.83,0,0,0,.59-2.1c0-.84-.75-.82-1.2-.45a20.11,20.11,0,0,1-2.37,1.49,3,3,0,0,1-2.39.18c-.49-.14-1-.12-1.13.74s-.47,3.59-.69,5a40.59,40.59,0,0,1-2.31,8.85c-1.43,3.41-2.84,4.49-4.09,4.49a2.12,2.12,0,0,1-2-1.59,4.86,4.86,0,0,1,0-2.78,4.77,4.77,0,0,1,1.86-2.29,24.89,24.89,0,0,0,3.35-3.66,7.22,7.22,0,0,0,1.55-3.69c0-1.29-.63-3.05-2-3.05s-3.61,1.64-4.9,3.19a18.14,18.14,0,0,0-3.08,6,22,22,0,0,0-.62,4.35s-.59,1.92-1.37,3.78-2.18,3.86-4,3.86-2.37-2.94-1.8-4.39,1.43-1.74,3.62-3.93,3.17-4.51,3.17-5.59-.49-3-2-3-3.31,1.49-4.8,3.09a15.69,15.69,0,0,0-3.1,6,20.12,20.12,0,0,0-.7,5.66c0,3.29,1.72,5,3.52,5a5.91,5.91,0,0,0,4.14-1.72c1.33-1.08,3-4.61,3.19-5.53s.39-.6.39,0a3.61,3.61,0,0,0,3.55,3.08c3.07,0,5.54-3.35,5.91-4.15a48.41,48.41,0,0,0,1.88-4.88c.3-1.1,1.28-5.53,1.45-7s.53-2,.88-2.26,1.08.18,1.49,0,1-.43,1-.08a2.44,2.44,0,0,1-.49,1.14c-.21.33-1.11,2.37-1.6,3.59a15.12,15.12,0,0,0-.83,4.64c0,1.27-.13,4.39,2.47,4.39s4.17-3.31,4.49-4.06,1.21-3.62,1.21-3.62,1-3.27,1.24-4.39S728,389,727.89,389ZM709.21,396a36.34,36.34,0,0,1,1.51-5.5c.37-.94.8-1.84,1.37-1.84.74,0,.86,1,.74,1.74s-1.11,4.25-2.43,5.7S709.07,397.21,709.21,396Zm-11,4.21a36.16,36.16,0,0,1,1.51-5.51c.37-.94.81-1.84,1.37-1.84.75,0,.87,1,.75,1.74s-1.12,4.25-2.43,5.7S698.12,401.41,698.25,400.18Z" transform="translate(-602.58 -304.58)" fill="#bd9474"/><path d="M679.94,323.9a2.33,2.33,0,0,1,2.46,2h-1.31a1.11,1.11,0,0,0-1.15-.77,1.31,1.31,0,0,0-1.3,1.45,1.35,1.35,0,0,0,1.3,1.45,1.11,1.11,0,0,0,1.17-.84h1.31a2.32,2.32,0,0,1-2.48,2.06,2.67,2.67,0,1,1,0-5.34Z" transform="translate(-602.58 -304.58)" fill="#231f20"/><path d="M684.06,326.58a2.65,2.65,0,1,1,5.3.21A2.65,2.65,0,1,1,684.06,326.58Zm4,.15a1.3,1.3,0,1,0-2.59-.1A1.3,1.3,0,1,0,688,326.73Z" transform="translate(-602.58 -304.58)" fill="#231f20"/><path d="M696.3,325.37l.47.09-.9,5.17-1.35-.23.4-2.3-1.3,1-.15,0-.89-1.34-.4,2.3-1.35-.23.9-5.18.49.08,1.63,2.6Z" transform="translate(-602.58 -304.58)" fill="#231f20"/><path d="M697.74,331.06l1.48-5,2.18.65a1.93,1.93,0,0,1-1.1,3.69l-.91-.27-.38,1.27Zm3.32-3.18c-.3-.1-.62-.18-.91-.27l-.42,1.42.9.27C701.33,329.5,701.79,328.11,701.06,327.88Z" transform="translate(-602.58 -304.58)" fill="#231f20"/><path d="M705.93,333.27,704,332.5l-.53.49-1.2-.49,4.14-4,.53.21.19,5.75L706,334Zm0-2.7-1.06,1,1.1.45Z" transform="translate(-602.58 -304.58)" fill="#231f20"/><path d="M710.81,333.52l-1.22,2.27-1.22-.66,2.49-4.64.43.23,1.11,3.54,1.22-2.26,1.2.64-2.48,4.63-.42-.23Z" transform="translate(-602.58 -304.58)" fill="#231f20"/><path d="M716.07,339.67l-1.1-.73,1.21-1.84.21-3.5,1.2.8-.17,2,.05,0,1.75-.93,1.21.8-3.15,1.55Z" transform="translate(-602.58 -304.58)" fill="#231f20"/><path d="M666.39,327.35l-1.87.55.21.71,1.71-.5.34,1.15-1.72.5.26.89,1.94-.57.33,1.15-3.22.94-1.48-5.05,3.16-.92Z" transform="translate(-602.58 -304.58)" fill="#231f20"/><path d="M661.12,329l-1.82.71.28.69,1.66-.65.44,1.11-1.67.65.34.87,1.87-.74.44,1.12L659.53,334l-1.91-4.91,3.06-1.19Z" transform="translate(-602.58 -304.58)" fill="#231f20"/><path d="M648.15,335.67l-1.6,1.11.42.61,1.47-1,.68,1-1.47,1,.53.76,1.66-1.14.68,1-2.76,1.91-3-4.33,2.7-1.87Z" transform="translate(-602.58 -304.58)" fill="#231f20"/><path d="M656.26,332.59a1.11,1.11,0,0,1,1,.65,1.51,1.51,0,0,1-.68,2.16l-2.13,1.1L652.13,332l1.94-1a1.58,1.58,0,0,1,2.14.67A1.25,1.25,0,0,1,656.26,332.59Zm-2.47-.18.38.74.73-.38a.41.41,0,0,0-.38-.73Zm.88,1.7.4.78.92-.48c.47-.24.07-1-.4-.77Z" transform="translate(-602.58 -304.58)" fill="#231f20"/><path d="M673.49,329.6l0,.19-1.43.28-1.15-1.31-.67.13.29,1.48-1.28.25-1-5,2.2-.43a1.82,1.82,0,0,1,1.69,3Zm-2.77-3.28-.92.18.25,1.25.92-.17C671.66,327.44,671.45,326.18,670.72,326.32Z" transform="translate(-602.58 -304.58)" fill="#231f20"/><path d="M633,357l.16.09-.69,1.29-1.74.06-.32.6,1.32.71-.62,1.15-4.5-2.42,1.06-2a1.82,1.82,0,0,1,3.42.61Zm-4.3.06c-.15.26-.29.55-.44.82l1.13.6.44-.82C630.15,357,629,356.35,628.68,357Z" transform="translate(-602.58 -304.58)" fill="#231f20"/><path d="M626.53,361l-.75,1.8.68.29.69-1.66,1.11.46-.69,1.66.85.35.78-1.86,1.1.46-1.29,3.1-4.86-2,1.27-3Z" transform="translate(-602.58 -304.58)" fill="#231f20"/><path d="M640.4,346.6l-1.4,1.49.27.67-.88.94-2.24-5.29.39-.42,5.43,1.89-.88.94Zm-2.52-1,.59,1.36.81-.86Z" transform="translate(-602.58 -304.58)" fill="#231f20"/><path d="M628.35,367.52l-.45,1.3-2-.69-.54,1.54,2,.69-.45,1.31-5-1.73.45-1.3,1.81.62.53-1.54-1.81-.62.45-1.31Z" transform="translate(-602.58 -304.58)" fill="#231f20"/><path d="M634.21,353.32l1,.61-1.4,2.23-1-.61.35-.56-2.43-1.52-.32.52-1-.62,1.33-2.14,1,.62-.32.51,2.43,1.52Z" transform="translate(-602.58 -304.58)" fill="#231f20"/><path d="M632.53,350.65l-.94-.74,2.41-3.06.94.74-.79,1,3.17,2.5-.82,1-3.17-2.5Z" transform="translate(-602.58 -304.58)" fill="#231f20"/><path d="M641.18,339.53a2.31,2.31,0,0,1,3-.15l-1,.86a1.08,1.08,0,0,0-1.24.22,1.32,1.32,0,0,0-.05,2,1.3,1.3,0,0,0,1.93.25,1.07,1.07,0,0,0,.44-1.22l-.85.72-.76-.88,1.9-1.61a3.86,3.86,0,0,1,.88,1.27,2.32,2.32,0,0,1-.81,2.67,2.69,2.69,0,1,1-3.47-4.1Z" transform="translate(-602.58 -304.58)" fill="#231f20"/></svg>
