<?xml version="1.0" standalone="no"?>
<!DOCTYPE svg PUBLIC "-//W3C//DTD SVG 20010904//EN"
 "http://www.w3.org/TR/2001/REC-SVG-20010904/DTD/svg10.dtd">
<svg version="1.0" xmlns="http://www.w3.org/2000/svg"
 width="260.000000pt" height="260.000000pt" viewBox="0 0 260.000000 260.000000"
 preserveAspectRatio="xMidYMid meet">
<metadata>
Created by potrace 1.11, written by Peter Selinger 2001-2013
</metadata>
<g transform="translate(0.000000,260.000000) scale(0.100000,-0.100000)"
fill="#000000" stroke="none">
<path d="M0 1300 l0 -1300 1300 0 1300 0 0 1300 0 1300 -1300 0 -1300 0 0
-1300z m1517 1054 c5 -13 -5 -91 -23 -176 -6 -27 -5 -28 25 -22 45 9 41 -19
-6 -43 l-38 -18 -38 -180 c-42 -201 -43 -238 -10 -243 31 -4 49 27 89 156 20
61 40 112 44 112 42 0 -50 -267 -114 -329 -58 -56 -121 -40 -147 36 -15 46 -5
135 32 285 16 66 29 121 29 124 0 3 -10 3 -22 2 -36 -5 -36 15 -1 32 43 20 54
49 61 153 5 84 6 89 31 98 14 5 33 13 41 18 23 15 40 13 47 -5z m-673 -123 c8
-12 -14 -28 -44 -33 -26 -3 -62 -56 -80 -118 -6 -19 -24 -142 -40 -272 -34
-269 -52 -373 -79 -450 -64 -187 -201 -347 -328 -384 -101 -29 -173 3 -173 77
0 43 21 69 55 69 31 0 59 -41 50 -71 -14 -44 46 -52 111 -14 53 31 96 96 128
193 36 112 42 136 81 367 20 116 44 247 55 293 22 92 79 224 112 259 31 33 18
29 -63 -19 -144 -86 -257 -250 -267 -387 -4 -55 -1 -76 12 -96 23 -34 73 -34
111 1 35 32 41 25 20 -20 -38 -79 -106 -105 -180 -70 -44 21 -65 67 -65 143 0
111 64 228 188 342 82 76 154 120 265 166 83 33 121 40 131 24z m1010 -197
c30 -30 7 -104 -33 -104 -42 0 -56 65 -21 100 24 24 34 25 54 4z m-599 -349
c0 -72 -4 -97 -20 -124 -24 -41 -59 -68 -103 -81 -29 -8 -37 -6 -58 15 -15 16
-24 19 -24 10 0 -7 -15 -30 -34 -49 -24 -26 -42 -36 -64 -36 -33 0 -61 29 -63
65 0 12 -7 2 -17 -25 -21 -54 -81 -120 -110 -120 -12 0 -31 9 -42 20 -26 26
-26 83 0 220 11 58 20 123 20 146 0 37 3 41 38 57 21 9 41 17 44 17 18 0 15
-66 -7 -189 -30 -168 -31 -194 -8 -189 9 2 26 18 37 37 29 51 75 237 76 308 0
68 12 83 73 98 25 7 27 5 27 -26 0 -19 -9 -80 -20 -137 -22 -113 -29 -197 -16
-209 21 -22 69 93 130 312 32 117 34 121 72 142 l39 22 15 -97 c8 -53 14 -137
15 -187z m935 225 c27 -27 26 -77 -5 -196 -26 -101 -32 -164 -15 -164 24 0 51
46 81 140 19 58 37 99 43 97 17 -6 10 -45 -25 -137 -41 -108 -99 -173 -151
-168 -25 2 -36 10 -47 32 -15 33 -9 83 31 245 15 63 17 86 8 95 -17 16 -53
-30 -80 -101 -15 -41 -80 -306 -80 -329 0 0 -18 -9 -40 -19 -31 -14 -43 -15
-54 -6 -11 9 -15 8 -19 -3 -3 -8 -20 -22 -37 -31 -30 -16 -31 -15 -62 15 -30
31 -31 33 -25 103 3 40 15 110 26 156 11 46 18 96 14 112 -5 25 -1 29 33 44
73 30 77 14 39 -170 -26 -128 -31 -180 -16 -190 15 -9 50 35 61 75 26 98 60
287 55 307 -5 23 5 32 60 53 22 8 27 7 37 -15 l11 -24 21 31 c20 30 78 68 103
68 7 0 22 -9 33 -20z m-784 -569 c56 -26 92 -66 109 -126 29 -94 -8 -190 -99
-257 -25 -18 -45 -36 -46 -39 0 -4 14 -9 31 -13 44 -9 124 -90 138 -141 47
-171 -84 -335 -268 -335 -70 0 -131 25 -131 54 0 24 15 26 46 5 71 -47 166 -4
220 101 25 48 25 173 1 217 -27 51 -62 68 -134 68 -35 0 -63 -4 -63 -10 0 -5
-9 -68 -20 -140 -17 -109 -27 -144 -61 -213 -49 -100 -126 -182 -214 -229
-118 -62 -206 -67 -245 -13 -34 48 -36 85 -7 114 33 33 51 33 83 1 20 -21 24
-31 19 -59 -6 -28 -3 -35 12 -40 49 -16 149 41 187 107 40 68 54 117 91 326
53 293 83 381 164 472 39 44 95 78 108 66 3 -4 -11 -38 -31 -75 -36 -69 -80
-226 -74 -264 3 -18 8 -17 64 21 81 54 118 119 119 208 0 69 -17 101 -76 141
-112 78 -397 -80 -487 -268 -61 -129 -64 -249 -7 -306 43 -43 99 -24 156 54
31 43 43 50 54 32 15 -24 -81 -147 -136 -176 -16 -8 -45 -14 -66 -14 -104 0
-168 113 -143 252 36 196 229 400 449 475 85 29 198 31 257 4z m1011 -53 c-3
-18 -17 -73 -31 -123 -14 -49 -29 -125 -32 -167 -6 -69 -5 -78 11 -84 33 -13
66 52 105 204 11 42 30 58 30 24 0 -30 -55 -203 -79 -250 -23 -45 -71 -82
-108 -82 -12 0 -31 12 -43 28 -34 42 -25 151 22 259 l35 82 -31 -6 c-17 -3
-34 -8 -38 -12 -4 -3 -16 -53 -28 -111 -31 -159 -74 -263 -127 -310 -73 -64
-148 -66 -185 -4 l-20 34 -30 -60 c-49 -99 -130 -148 -197 -120 -41 17 -61 64
-61 147 0 158 83 312 193 358 36 15 38 15 62 -9 50 -50 21 -128 -86 -235 -64
-64 -69 -72 -69 -112 0 -47 21 -79 53 -79 52 0 120 120 138 247 5 34 18 87 30
117 24 65 102 155 155 181 32 15 37 15 59 1 60 -40 32 -131 -74 -241 -43 -44
-71 -82 -75 -102 -10 -42 12 -87 42 -91 77 -11 143 130 181 383 l16 110 42 1
c28 1 55 10 80 27 53 36 66 35 60 -5z"/>
<path d="M1116 1714 c-21 -71 -41 -135 -44 -141 -2 -7 3 -13 12 -13 8 0 20 -9
26 -20 17 -31 39 -24 57 18 12 29 14 56 9 127 -13 173 -16 175 -60 29z"/>
<path d="M2046 1123 c-18 -40 -46 -139 -46 -162 0 -26 41 21 66 74 27 56 32
125 11 125 -8 0 -22 -17 -31 -37z"/>
<path d="M1756 1009 c-21 -53 -47 -162 -40 -169 20 -19 103 161 90 195 -10 28
-34 15 -50 -26z"/>
</g>
</svg>
